# Blender 4.1.1
# www.blender.org
mtllib democar.mtl
o Cube
v 1.000000 0.223662 -1.944895
v 1.000000 -0.509430 -1.944895
v 1.000000 -0.004419 1.944895
v 1.000000 -0.343430 1.915636
v -1.000000 0.206015 -1.944895
v -1.000000 -0.509430 -1.944895
v -1.000000 -0.004419 1.944895
v -1.000000 -0.343430 1.915636
v -1.000000 -0.509430 0.000000
v 1.000000 0.519284 0.089316
v -1.000000 0.519284 0.089316
v 1.000000 -0.509430 0.000000
v -1.000000 -0.509430 0.972447
v 1.000000 0.190916 0.813935
v -1.000000 0.190916 0.813935
v 1.000000 -0.509430 0.972447
v -1.000000 0.519284 -0.972447
v 1.000000 -0.509430 -0.972447
v -1.000000 -0.509430 -0.972447
v 1.000000 0.519284 -0.972447
v -1.000000 -0.509430 -0.486224
v 1.000000 0.519284 -0.486224
v -1.000000 0.519284 -0.486224
v 1.000000 -0.509430 -0.486224
v -1.107033 -0.329531 -1.626873
v 1.137730 -0.329553 -1.626873
v -1.107041 -0.390404 -1.620877
v 1.137722 -0.390426 -1.620877
v -1.107049 -0.448937 -1.603121
v 1.137714 -0.448960 -1.603121
v -1.107056 -0.502882 -1.574287
v 1.137707 -0.502905 -1.574287
v -1.107062 -0.550165 -1.535483
v 1.137701 -0.550188 -1.535483
v -1.107067 -0.588969 -1.488200
v 1.137696 -0.588992 -1.488200
v -1.107071 -0.617804 -1.434255
v 1.137692 -0.617826 -1.434255
v -1.107073 -0.635560 -1.375721
v 1.137690 -0.635582 -1.375721
v -1.107074 -0.641555 -1.314848
v 1.137689 -0.641578 -1.314848
v -1.107073 -0.635560 -1.253975
v 1.137690 -0.635582 -1.253975
v -1.107071 -0.617804 -1.195442
v 1.137692 -0.617826 -1.195442
v -1.107067 -0.588969 -1.141497
v 1.137696 -0.588992 -1.141497
v -1.107062 -0.550165 -1.094214
v 1.137701 -0.550188 -1.094214
v -1.107056 -0.502882 -1.055410
v 1.137707 -0.502905 -1.055410
v -1.107049 -0.448937 -1.026575
v 1.137714 -0.448960 -1.026575
v -1.107041 -0.390404 -1.008819
v 1.137722 -0.390426 -1.008819
v -1.107033 -0.329531 -1.002824
v 1.137730 -0.329553 -1.002824
v -1.107026 -0.268658 -1.008819
v 1.137738 -0.268680 -1.008819
v -1.107018 -0.210124 -1.026575
v 1.137745 -0.210147 -1.026575
v -1.107011 -0.156179 -1.055410
v 1.137752 -0.156202 -1.055410
v -1.107005 -0.108896 -1.094214
v 1.137759 -0.108919 -1.094214
v -1.107000 -0.070092 -1.141497
v 1.137764 -0.070115 -1.141497
v -1.106996 -0.041258 -1.195442
v 1.137767 -0.041281 -1.195442
v -1.106994 -0.023502 -1.253975
v 1.137770 -0.023525 -1.253975
v -1.106993 -0.017506 -1.314848
v 1.137771 -0.017529 -1.314848
v -1.106994 -0.023502 -1.375721
v 1.137770 -0.023525 -1.375721
v -1.106996 -0.041258 -1.434255
v 1.137767 -0.041281 -1.434255
v -1.107000 -0.070092 -1.488200
v 1.137764 -0.070115 -1.488200
v -1.107005 -0.108896 -1.535483
v 1.137759 -0.108919 -1.535483
v -1.107011 -0.156179 -1.574287
v 1.137752 -0.156202 -1.574287
v -1.107018 -0.210124 -1.603121
v 1.137745 -0.210147 -1.603121
v -1.107026 -0.268658 -1.620877
v 1.137738 -0.268680 -1.620877
v -1.107033 -0.329531 0.694369
v 1.137730 -0.329553 0.694369
v -1.107041 -0.390404 0.700364
v 1.137722 -0.390426 0.700364
v -1.107049 -0.448937 0.718120
v 1.137714 -0.448960 0.718120
v -1.107056 -0.502882 0.746954
v 1.137707 -0.502905 0.746954
v -1.107062 -0.550165 0.785759
v 1.137701 -0.550188 0.785759
v -1.107067 -0.588969 0.833042
v 1.137696 -0.588992 0.833042
v -1.107071 -0.617804 0.886987
v 1.137692 -0.617826 0.886987
v -1.107073 -0.635560 0.945520
v 1.137690 -0.635582 0.945520
v -1.107074 -0.641555 1.006393
v 1.137689 -0.641578 1.006393
v -1.107073 -0.635560 1.067266
v 1.137690 -0.635582 1.067266
v -1.107071 -0.617804 1.125800
v 1.137692 -0.617826 1.125800
v -1.107067 -0.588969 1.179745
v 1.137696 -0.588992 1.179745
v -1.107062 -0.550165 1.227028
v 1.137701 -0.550188 1.227028
v -1.107056 -0.502882 1.265832
v 1.137707 -0.502905 1.265832
v -1.107049 -0.448937 1.294666
v 1.137714 -0.448960 1.294666
v -1.107041 -0.390404 1.312422
v 1.137722 -0.390426 1.312422
v -1.107033 -0.329531 1.318417
v 1.137730 -0.329553 1.318417
v -1.107026 -0.268658 1.312422
v 1.137738 -0.268680 1.312422
v -1.107018 -0.210124 1.294666
v 1.137745 -0.210147 1.294666
v -1.107011 -0.156179 1.265832
v 1.137752 -0.156202 1.265832
v -1.107005 -0.108896 1.227028
v 1.137759 -0.108919 1.227028
v -1.107000 -0.070092 1.179745
v 1.137764 -0.070115 1.179745
v -1.106996 -0.041258 1.125800
v 1.137767 -0.041281 1.125800
v -1.106994 -0.023502 1.067266
v 1.137770 -0.023525 1.067266
v -1.106993 -0.017506 1.006393
v 1.137771 -0.017529 1.006393
v -1.106994 -0.023502 0.945520
v 1.137770 -0.023525 0.945520
v -1.106996 -0.041258 0.886987
v 1.137767 -0.041281 0.886987
v -1.107000 -0.070092 0.833042
v 1.137764 -0.070115 0.833042
v -1.107005 -0.108896 0.785759
v 1.137759 -0.108919 0.785759
v -1.107011 -0.156179 0.746954
v 1.137752 -0.156202 0.746954
v -1.107018 -0.210124 0.718120
v 1.137745 -0.210147 0.718120
v -1.107026 -0.268658 0.700364
v 1.137738 -0.268680 0.700364
vn -0.0000 0.9854 0.1702
vn -0.0000 -0.0860 0.9963
vn -1.0000 -0.0000 -0.0000
vn -0.0000 -0.9849 0.1733
vn 1.0000 -0.0000 -0.0000
vn -0.0000 -0.0000 -1.0000
vn -0.0000 -1.0000 -0.0000
vn -0.0000 1.0000 -0.0000
vn -0.0000 0.9108 0.4128
vn -0.0042 0.9543 -0.2988
vn -0.0000 -0.0980 -0.9952
vn -0.0000 -0.2903 -0.9569
vn -0.0000 -0.4714 -0.8819
vn -0.0000 -0.6344 -0.7730
vn -0.0000 -0.7730 -0.6344
vn -0.0000 -0.8819 -0.4714
vn -0.0000 -0.9569 -0.2903
vn -0.0000 -0.9952 -0.0980
vn -0.0000 -0.9952 0.0980
vn -0.0000 -0.9569 0.2903
vn -0.0000 -0.8819 0.4714
vn -0.0000 -0.7730 0.6344
vn -0.0000 -0.6344 0.7730
vn -0.0000 -0.4714 0.8819
vn -0.0000 -0.2903 0.9569
vn -0.0000 -0.0980 0.9952
vn -0.0000 0.0980 0.9952
vn -0.0000 0.2903 0.9569
vn -0.0000 0.4714 0.8819
vn -0.0000 0.6344 0.7730
vn -0.0000 0.7730 0.6344
vn -0.0000 0.8819 0.4714
vn -0.0000 0.9569 0.2903
vn -0.0000 0.9952 0.0980
vn -0.0000 0.9952 -0.0980
vn -0.0000 0.9569 -0.2903
vn -0.0000 0.8819 -0.4714
vn -0.0000 0.7730 -0.6344
vn -0.0000 0.6344 -0.7730
vn -0.0000 0.4714 -0.8819
vn 1.0000 -0.0001 -0.0000
vn -0.0000 0.2903 -0.9569
vn -0.0000 0.0980 -0.9952
vn -1.0000 0.0001 -0.0000
vt 0.625000 0.687500
vt 0.875000 0.687500
vt 0.875000 0.750000
vt 0.625000 0.750000
vt 0.375000 0.750000
vt 0.625000 1.000000
vt 0.375000 1.000000
vt 0.375000 0.187500
vt 0.625000 0.187500
vt 0.625000 0.250000
vt 0.375000 0.250000
vt 0.125000 0.687500
vt 0.375000 0.687500
vt 0.125000 0.750000
vt 0.625000 0.500000
vt 0.375000 0.500000
vt 0.375000 0.593750
vt 0.625000 0.593750
vt 0.625000 0.625000
vt 0.375000 0.625000
vt 0.125000 0.593750
vt 0.125000 0.625000
vt 0.375000 0.062500
vt 0.625000 0.062500
vt 0.625000 0.125000
vt 0.375000 0.125000
vt 0.875000 0.593750
vt 0.875000 0.625000
vt 0.375000 0.000000
vt 0.625000 0.000000
vt 0.875000 0.500000
vt 0.875000 0.562500
vt 0.625000 0.562500
vt 0.125000 0.500000
vt 0.375000 0.562500
vt 0.125000 0.562500
vt 0.375000 0.156250
vt 0.625000 0.156250
vt 1.000000 0.500000
vt 1.000000 1.000000
vt 0.968750 1.000000
vt 0.968750 0.500000
vt 0.937500 1.000000
vt 0.937500 0.500000
vt 0.906250 1.000000
vt 0.906250 0.500000
vt 0.875000 1.000000
vt 0.843750 1.000000
vt 0.843750 0.500000
vt 0.812500 1.000000
vt 0.812500 0.500000
vt 0.781250 1.000000
vt 0.781250 0.500000
vt 0.750000 1.000000
vt 0.750000 0.500000
vt 0.718750 1.000000
vt 0.718750 0.500000
vt 0.687500 1.000000
vt 0.687500 0.500000
vt 0.656250 1.000000
vt 0.656250 0.500000
vt 0.593750 1.000000
vt 0.593750 0.500000
vt 0.562500 1.000000
vt 0.562500 0.500000
vt 0.531250 1.000000
vt 0.531250 0.500000
vt 0.500000 1.000000
vt 0.500000 0.500000
vt 0.468750 1.000000
vt 0.468750 0.500000
vt 0.437500 1.000000
vt 0.437500 0.500000
vt 0.406250 1.000000
vt 0.406250 0.500000
vt 0.343750 1.000000
vt 0.343750 0.500000
vt 0.312500 1.000000
vt 0.312500 0.500000
vt 0.281250 1.000000
vt 0.281250 0.500000
vt 0.250000 1.000000
vt 0.250000 0.500000
vt 0.218750 1.000000
vt 0.218750 0.500000
vt 0.187500 1.000000
vt 0.187500 0.500000
vt 0.156250 1.000000
vt 0.156250 0.500000
vt 0.125000 1.000000
vt 0.093750 1.000000
vt 0.093750 0.500000
vt 0.062500 1.000000
vt 0.062500 0.500000
vt 0.296822 0.485388
vt 0.250000 0.490000
vt 0.203178 0.485388
vt 0.158156 0.471731
vt 0.116663 0.449553
vt 0.080294 0.419706
vt 0.050447 0.383337
vt 0.028269 0.341844
vt 0.014612 0.296822
vt 0.010000 0.250000
vt 0.014612 0.203178
vt 0.028269 0.158156
vt 0.050447 0.116663
vt 0.080294 0.080294
vt 0.116663 0.050447
vt 0.158156 0.028269
vt 0.203178 0.014612
vt 0.250000 0.010000
vt 0.296822 0.014612
vt 0.341844 0.028269
vt 0.383337 0.050447
vt 0.419706 0.080294
vt 0.449553 0.116663
vt 0.471731 0.158156
vt 0.485388 0.203178
vt 0.490000 0.250000
vt 0.485388 0.296822
vt 0.471731 0.341844
vt 0.449553 0.383337
vt 0.419706 0.419706
vt 0.383337 0.449553
vt 0.341844 0.471731
vt 0.031250 1.000000
vt 0.031250 0.500000
vt 0.000000 1.000000
vt 0.000000 0.500000
vt 0.750000 0.490000
vt 0.796822 0.485388
vt 0.841844 0.471731
vt 0.883337 0.449553
vt 0.919706 0.419706
vt 0.949553 0.383337
vt 0.971731 0.341844
vt 0.985388 0.296822
vt 0.990000 0.250000
vt 0.985388 0.203178
vt 0.971731 0.158156
vt 0.949553 0.116663
vt 0.919706 0.080294
vt 0.883337 0.050447
vt 0.841844 0.028269
vt 0.796822 0.014612
vt 0.750000 0.010000
vt 0.703178 0.014612
vt 0.658156 0.028269
vt 0.616663 0.050447
vt 0.580294 0.080294
vt 0.550447 0.116663
vt 0.528269 0.158156
vt 0.514612 0.203178
vt 0.510000 0.250000
vt 0.514612 0.296822
vt 0.528269 0.341844
vt 0.550447 0.383337
vt 0.580294 0.419706
vt 0.616663 0.449553
vt 0.658156 0.471731
vt 0.703178 0.485388
s 0
usemtl Material
f 14/1/1 15/2/1 7/3/1 3/4/1
f 4/5/2 3/4/2 7/6/2 8/7/2
f 19/8/3 17/9/3 5/10/3 6/11/3
f 13/12/4 16/13/4 4/5/4 8/14/4
f 16/13/5 14/1/5 3/4/5 4/5/5
f 6/11/6 5/10/6 1/15/6 2/16/6
f 24/17/5 22/18/5 10/19/5 12/20/5
f 21/21/7 24/17/7 12/20/7 9/22/7
f 13/23/3 15/24/3 11/25/3 9/26/3
f 22/18/8 23/27/8 11/28/8 10/19/8
f 8/29/3 7/30/3 15/24/3 13/23/3
f 12/20/5 10/19/5 14/1/5 16/13/5
f 9/22/7 12/20/7 16/13/7 13/12/7
f 10/19/9 11/28/9 15/2/9 14/1/9
f 1/15/10 5/31/10 17/32/10 20/33/10
f 6/34/7 2/16/7 18/35/7 19/36/7
f 2/16/5 1/15/5 20/33/5 18/35/5
f 21/37/3 23/38/3 17/9/3 19/8/3
f 9/26/3 11/25/3 23/38/3 21/37/3
f 20/33/8 17/32/8 23/27/8 22/18/8
f 19/36/7 18/35/7 24/17/7 21/21/7
f 18/35/5 20/33/5 22/18/5 24/17/5
f 25/39/11 26/40/11 28/41/11 27/42/11
f 27/42/12 28/41/12 30/43/12 29/44/12
f 29/44/13 30/43/13 32/45/13 31/46/13
f 31/46/14 32/45/14 34/47/14 33/31/14
f 33/31/15 34/47/15 36/48/15 35/49/15
f 35/49/16 36/48/16 38/50/16 37/51/16
f 37/51/17 38/50/17 40/52/17 39/53/17
f 39/53/18 40/52/18 42/54/18 41/55/18
f 41/55/19 42/54/19 44/56/19 43/57/19
f 43/57/20 44/56/20 46/58/20 45/59/20
f 45/59/21 46/58/21 48/60/21 47/61/21
f 47/61/22 48/60/22 50/6/22 49/15/22
f 49/15/23 50/6/23 52/62/23 51/63/23
f 51/63/24 52/62/24 54/64/24 53/65/24
f 53/65/25 54/64/25 56/66/25 55/67/25
f 55/67/26 56/66/26 58/68/26 57/69/26
f 57/69/27 58/68/27 60/70/27 59/71/27
f 59/71/28 60/70/28 62/72/28 61/73/28
f 61/73/29 62/72/29 64/74/29 63/75/29
f 63/75/30 64/74/30 66/7/30 65/16/30
f 65/16/31 66/7/31 68/76/31 67/77/31
f 67/77/32 68/76/32 70/78/32 69/79/32
f 69/79/33 70/78/33 72/80/33 71/81/33
f 71/81/34 72/80/34 74/82/34 73/83/34
f 73/83/35 74/82/35 76/84/35 75/85/35
f 75/85/36 76/84/36 78/86/36 77/87/36
f 77/87/37 78/86/37 80/88/37 79/89/37
f 79/89/38 80/88/38 82/90/38 81/34/38
f 81/34/39 82/90/39 84/91/39 83/92/39
f 83/92/40 84/91/40 86/93/40 85/94/40
f 28/95/41 26/96/41 88/97/41 86/98/41 84/99/41 82/100/41 80/101/41 78/102/41 76/103/41 74/104/41 72/105/41 70/106/41 68/107/41 66/108/41 64/109/41 62/110/41 60/111/41 58/112/41 56/113/41 54/114/41 52/115/41 50/116/41 48/117/41 46/118/41 44/119/41 42/120/41 40/121/41 38/122/41 36/123/41 34/124/41 32/125/41 30/126/41
f 85/94/42 86/93/42 88/127/42 87/128/42
f 87/128/43 88/127/43 26/129/43 25/130/43
f 25/131/44 27/132/44 29/133/44 31/134/44 33/135/44 35/136/44 37/137/44 39/138/44 41/139/44 43/140/44 45/141/44 47/142/44 49/143/44 51/144/44 53/145/44 55/146/44 57/147/44 59/148/44 61/149/44 63/150/44 65/151/44 67/152/44 69/153/44 71/154/44 73/155/44 75/156/44 77/157/44 79/158/44 81/159/44 83/160/44 85/161/44 87/162/44
f 89/39/11 90/40/11 92/41/11 91/42/11
f 91/42/12 92/41/12 94/43/12 93/44/12
f 93/44/13 94/43/13 96/45/13 95/46/13
f 95/46/14 96/45/14 98/47/14 97/31/14
f 97/31/15 98/47/15 100/48/15 99/49/15
f 99/49/16 100/48/16 102/50/16 101/51/16
f 101/51/17 102/50/17 104/52/17 103/53/17
f 103/53/18 104/52/18 106/54/18 105/55/18
f 105/55/19 106/54/19 108/56/19 107/57/19
f 107/57/20 108/56/20 110/58/20 109/59/20
f 109/59/21 110/58/21 112/60/21 111/61/21
f 111/61/22 112/60/22 114/6/22 113/15/22
f 113/15/23 114/6/23 116/62/23 115/63/23
f 115/63/24 116/62/24 118/64/24 117/65/24
f 117/65/25 118/64/25 120/66/25 119/67/25
f 119/67/26 120/66/26 122/68/26 121/69/26
f 121/69/27 122/68/27 124/70/27 123/71/27
f 123/71/28 124/70/28 126/72/28 125/73/28
f 125/73/29 126/72/29 128/74/29 127/75/29
f 127/75/30 128/74/30 130/7/30 129/16/30
f 129/16/31 130/7/31 132/76/31 131/77/31
f 131/77/32 132/76/32 134/78/32 133/79/32
f 133/79/33 134/78/33 136/80/33 135/81/33
f 135/81/34 136/80/34 138/82/34 137/83/34
f 137/83/35 138/82/35 140/84/35 139/85/35
f 139/85/36 140/84/36 142/86/36 141/87/36
f 141/87/37 142/86/37 144/88/37 143/89/37
f 143/89/38 144/88/38 146/90/38 145/34/38
f 145/34/39 146/90/39 148/91/39 147/92/39
f 147/92/40 148/91/40 150/93/40 149/94/40
f 92/95/41 90/96/41 152/97/41 150/98/41 148/99/41 146/100/41 144/101/41 142/102/41 140/103/41 138/104/41 136/105/41 134/106/41 132/107/41 130/108/41 128/109/41 126/110/41 124/111/41 122/112/41 120/113/41 118/114/41 116/115/41 114/116/41 112/117/41 110/118/41 108/119/41 106/120/41 104/121/41 102/122/41 100/123/41 98/124/41 96/125/41 94/126/41
f 149/94/42 150/93/42 152/127/42 151/128/42
f 151/128/43 152/127/43 90/129/43 89/130/43
f 89/131/44 91/132/44 93/133/44 95/134/44 97/135/44 99/136/44 101/137/44 103/138/44 105/139/44 107/140/44 109/141/44 111/142/44 113/143/44 115/144/44 117/145/44 119/146/44 121/147/44 123/148/44 125/149/44 127/150/44 129/151/44 131/152/44 133/153/44 135/154/44 137/155/44 139/156/44 141/157/44 143/158/44 145/159/44 147/160/44 149/161/44 151/162/44
